<svg xmlns="http://www.w3.org/2000/svg" viewBox="0 0 1024 1024" width="1024" height="1024"><rect width="1024" height="1024" fill="#0D0D0C"/>
  <g transform="translate(204.8,60) scale(0.6)">
  <g>
    <path fill="#F7F3E9" fill-rule="evenodd" d="M512,190 H512 A160,160 0 0 1 672,350 V480 A160,160 0 0 1 512,640 H512 A160,160 0 0 1 352,480 V350 A160,160 0 0 1 512,190 Z M374,330 H374 A15,15 0 0 1 389,345 V485 A15,15 0 0 1 374,500 H374 A15,15 0 0 1 359,485 V345 A15,15 0 0 1 374,330 Z M420,260 H420 A15,15 0 0 1 435,275 V545 A15,15 0 0 1 420,560 H420 A15,15 0 0 1 405,545 V275 A15,15 0 0 1 420,260 Z M466,300 H466 A15,15 0 0 1 481,315 V595 A15,15 0 0 1 466,610 H466 A15,15 0 0 1 451,595 V315 A15,15 0 0 1 466,300 Z M512,230 H512 A15,15 0 0 1 527,245 V525 A15,15 0 0 1 512,540 H512 A15,15 0 0 1 497,525 V245 A15,15 0 0 1 512,230 Z M558,290 H558 A15,15 0 0 1 573,305 V605 A15,15 0 0 1 558,620 H558 A15,15 0 0 1 543,605 V305 A15,15 0 0 1 558,290 Z M604,250 H604 A15,15 0 0 1 619,265 V545 A15,15 0 0 1 604,560 H604 A15,15 0 0 1 589,545 V265 A15,15 0 0 1 604,250 Z M650,320 H650 A15,15 0 0 1 665,335 V495 A15,15 0 0 1 650,510 H650 A15,15 0 0 1 635,495 V335 A15,15 0 0 1 650,320 Z"/>
    <path fill="none" stroke="#F7F3E9" stroke-width="44" stroke-linecap="round"
      d="M292,500 A220,220 0 0 0 732,500"/>
    <path fill="#F7F3E9" d="M502,730 H522 A8,8 0 0 1 530,738 V862 A8,8 0 0 1 522,870 H502 A8,8 0 0 1 494,862 V738 A8,8 0 0 1 502,730 Z M412,870 H612 A10,10 0 0 1 622,880 V900 A10,10 0 0 1 612,910 H412 A10,10 0 0 1 402,900 V880 A10,10 0 0 1 412,870 Z"/>
  </g></g>
  <g transform="translate(291.68,690) scale(0.72)"><path fill="#F7F3E9" d="M6,0 H118 A6,6 0 0 1 124,6 V32 A6,6 0 0 1 118,38 H6 A6,6 0 0 1 0,32 V6 A6,6 0 0 1 6,0 Z M49,0 H75 A6,6 0 0 1 81,6 V134 A6,6 0 0 1 75,140 H49 A6,6 0 0 1 43,134 V6 A6,6 0 0 1 49,0 Z M208,0 H252 A46,46 0 0 1 298,46 V94 A46,46 0 0 1 252,140 H208 A46,46 0 0 1 162,94 V46 A46,46 0 0 1 208,0 Z M224,38 A24,24 0 0 0 200,62 V78 A24,24 0 0 0 224,102 H236 A24,24 0 0 0 260,78 V62 A24,24 0 0 0 236,38 Z M342,0 H368 A6,6 0 0 1 374,6 V134 A6,6 0 0 1 368,140 H342 A6,6 0 0 1 336,134 V6 A6,6 0 0 1 342,0 Z M428,0 H454 A6,6 0 0 1 460,6 V134 A6,6 0 0 1 454,140 H428 A6,6 0 0 1 422,134 V6 A6,6 0 0 1 428,0 Z M336,0 L374,0 L460,140 L422,140 Z M504,0 H530 A6,6 0 0 1 536,6 V134 A6,6 0 0 1 530,140 H504 A6,6 0 0 1 498,134 V6 A6,6 0 0 1 504,0 Z M504,0 H606 A6,6 0 0 1 612,6 V32 A6,6 0 0 1 606,38 H504 A6,6 0 0 1 498,32 V6 A6,6 0 0 1 504,0 Z M504,51 H590 A6,6 0 0 1 596,57 V83 A6,6 0 0 1 590,89 H504 A6,6 0 0 1 498,83 V57 A6,6 0 0 1 504,51 Z M504,102 H606 A6,6 0 0 1 612,108 V134 A6,6 0 0 1 606,140 H504 A6,6 0 0 1 498,134 V108 A6,6 0 0 1 504,102 Z"/></g>
</svg>
