<svg xmlns="http://www.w3.org/2000/svg" viewBox="0 0 612 140" width="612" height="140"><path fill="#F7F3E9" d="M6,0 H118 A6,6 0 0 1 124,6 V32 A6,6 0 0 1 118,38 H6 A6,6 0 0 1 0,32 V6 A6,6 0 0 1 6,0 Z M49,0 H75 A6,6 0 0 1 81,6 V134 A6,6 0 0 1 75,140 H49 A6,6 0 0 1 43,134 V6 A6,6 0 0 1 49,0 Z M208,0 H252 A46,46 0 0 1 298,46 V94 A46,46 0 0 1 252,140 H208 A46,46 0 0 1 162,94 V46 A46,46 0 0 1 208,0 Z M224,38 A24,24 0 0 0 200,62 V78 A24,24 0 0 0 224,102 H236 A24,24 0 0 0 260,78 V62 A24,24 0 0 0 236,38 Z M342,0 H368 A6,6 0 0 1 374,6 V134 A6,6 0 0 1 368,140 H342 A6,6 0 0 1 336,134 V6 A6,6 0 0 1 342,0 Z M428,0 H454 A6,6 0 0 1 460,6 V134 A6,6 0 0 1 454,140 H428 A6,6 0 0 1 422,134 V6 A6,6 0 0 1 428,0 Z M336,0 L374,0 L460,140 L422,140 Z M504,0 H530 A6,6 0 0 1 536,6 V134 A6,6 0 0 1 530,140 H504 A6,6 0 0 1 498,134 V6 A6,6 0 0 1 504,0 Z M504,0 H606 A6,6 0 0 1 612,6 V32 A6,6 0 0 1 606,38 H504 A6,6 0 0 1 498,32 V6 A6,6 0 0 1 504,0 Z M504,51 H590 A6,6 0 0 1 596,57 V83 A6,6 0 0 1 590,89 H504 A6,6 0 0 1 498,83 V57 A6,6 0 0 1 504,51 Z M504,102 H606 A6,6 0 0 1 612,108 V134 A6,6 0 0 1 606,140 H504 A6,6 0 0 1 498,134 V108 A6,6 0 0 1 504,102 Z"/>
</svg>
